<svg xmlns="http://www.w3.org/2000/svg" viewBox="0 0 64 64" fill="none">
  <defs>
    <linearGradient id="bg" x1="10" x2="54" y1="8" y2="56" gradientUnits="userSpaceOnUse">
      <stop stop-color="#75B84E" />
      <stop offset="1" stop-color="#355D1F" />
    </linearGradient>
    <linearGradient id="gold" x1="23" x2="45" y1="12" y2="30" gradientUnits="userSpaceOnUse">
      <stop stop-color="#E4C46A" />
      <stop offset="1" stop-color="#AF7B22" />
    </linearGradient>
  </defs>
  <rect width="64" height="64" rx="18" fill="#0F170F" />
  <rect x="4" y="4" width="56" height="56" rx="16" fill="url(#bg)" />
  <path d="M15 44.5 22 35l7 5 11-13 9 7" stroke="#F6F2DD" stroke-linecap="round" stroke-linejoin="round" stroke-width="3.5" />
  <path d="M18 43h28" stroke="#EAE5CC" stroke-linecap="round" stroke-width="3" />
  <rect x="17" y="19" width="8" height="17" rx="2.2" fill="#F8F4E3" />
  <rect x="28" y="14" width="8" height="22" rx="2.2" fill="#F8F4E3" />
  <rect x="39" y="22" width="8" height="14" rx="2.2" fill="#F8F4E3" />
  <path d="m46.5 12 1.9 4.2 4.6.3-3.4 3 1 4.5-4.1-2.3-4 2.3 1-4.5-3.4-3 4.6-.3 1.8-4.2Z" fill="url(#gold)" />
</svg>
