<svg width="1200" height="720" viewBox="0 0 1200 720" fill="none" xmlns="http://www.w3.org/2000/svg">
  <rect width="1200" height="720" rx="36" fill="#0D1821"/>
  <rect x="48" y="48" width="1104" height="624" rx="28" fill="#142431" stroke="#245A73" stroke-width="2"/>
  <rect x="48" y="48" width="1104" height="76" rx="28" fill="#11202C"/>
  <circle cx="92" cy="86" r="10" fill="#5FAE5D"/>
  <circle cx="124" cy="86" r="10" fill="#F7C64A"/>
  <circle cx="156" cy="86" r="10" fill="#EA6A55"/>
  <text x="192" y="96" fill="#EEF6FB" font-family="Arial, sans-serif" font-size="30" font-weight="700">Geocaching.com Lists / Pocket Query</text>

  <rect x="92" y="164" width="280" height="448" rx="24" fill="#10212D" stroke="#275E78"/>
  <text x="128" y="214" fill="#68C8F0" font-family="Arial, sans-serif" font-size="26" font-weight="700">Guide Flow</text>
  <rect x="124" y="248" width="216" height="54" rx="16" fill="#256A86"/>
  <text x="148" y="283" fill="#F4FBFF" font-family="Arial, sans-serif" font-size="24" font-weight="700">1. Create List</text>
  <rect x="124" y="322" width="216" height="54" rx="16" fill="#183340"/>
  <text x="153" y="357" fill="#D8E7F0" font-family="Arial, sans-serif" font-size="22">2. Add caches</text>
  <rect x="124" y="396" width="216" height="54" rx="16" fill="#183340"/>
  <text x="140" y="431" fill="#D8E7F0" font-family="Arial, sans-serif" font-size="22">3. Create PQ / GPS</text>
  <rect x="124" y="470" width="216" height="54" rx="16" fill="#183340"/>
  <text x="157" y="505" fill="#D8E7F0" font-family="Arial, sans-serif" font-size="22">4. Upload GPX</text>

  <rect x="412" y="164" width="676" height="448" rx="28" fill="#10202C" stroke="#2C708E"/>
  <text x="458" y="220" fill="#F1FAFD" font-family="Arial, sans-serif" font-size="34" font-weight="700">Official list-first route</text>
  <text x="458" y="258" fill="#B8D2DE" font-family="Arial, sans-serif" font-size="22">Use a List as the staging area, then export via Pocket Query or GPS download.</text>

  <rect x="458" y="308" width="220" height="66" rx="18" fill="#2D8A47"/>
  <text x="496" y="350" fill="#FFFFFF" font-family="Arial, sans-serif" font-size="26" font-weight="700">Create new List</text>
  <rect x="702" y="308" width="240" height="66" rx="18" fill="#E1A92A"/>
  <text x="738" y="350" fill="#1B1B1B" font-family="Arial, sans-serif" font-size="26" font-weight="700">Add # to a List</text>
  <rect x="458" y="406" width="246" height="66" rx="18" fill="#2D6CCA"/>
  <text x="503" y="448" fill="#FFFFFF" font-family="Arial, sans-serif" font-size="26" font-weight="700">Create Pocket Query</text>
  <rect x="732" y="406" width="220" height="66" rx="18" fill="#7A55C4"/>
  <text x="788" y="448" fill="#FFFFFF" font-family="Arial, sans-serif" font-size="26" font-weight="700">Download to GPS</text>

  <text x="458" y="534" fill="#D9EAF2" font-family="Arial, sans-serif" font-size="24">This route uses the official Lists/Pocket Query flow. If bulk code paste is not available for your account, add caches through search/map/List tools first.</text>
</svg>
